<svg xmlns="http://www.w3.org/2000/svg" version="1.1" xmlns:xlink="http://www.w3.org/1999/xlink" viewBox="0 0 13.865298514140305 8.544005672589396"><g transform="matrix(1,0,0,1,0.901691798574058,5.634568268546588)"><g clip-path="url(#SvgjsClipPath1001)"><g clip-path="url(#SvgjsClipPath10005098b7b2-eeec-4321-9b21-00667db182ae)"><path d=" M 5.565122993334515 -4.07922587426638 C 5.5721946885954505 -4.342434371878403 5.69078701812134 -4.539275009466545 5.923339716777207 -4.66168605443334 C 6.088145574833311 -4.748420396808715 6.261967844347107 -4.754077753017463 6.436320491005474 -4.6885938549012 C 6.470901080831449 -4.675617294097383 6.5047745011313305 -4.655781188890459 6.533096640651378 -4.632091009766325 C 6.5826338659542305 -4.590650875537242 6.568172249145618 -4.5214896958852915 6.508487141143321 -4.4949708386567835 C 6.489464280891404 -4.486520162819965 6.471997193596893 -4.490268161308261 6.453822936776289 -4.4966680455194075 C 6.400396279079921 -4.51558483034241 6.34597958404702 -4.528596749622532 6.288946361767575 -4.533087276113226 C 6.066859772097893 -4.550589721884042 5.918601680952379 -4.420930189274788 5.8465411062434445 -4.2768090398569205 C 5.789154299200952 -4.162000067295631 5.775824153634089 -3.9464547957423144 5.918743114857597 -3.787058784560826 C 6.044725365931165 -3.646579558202341 6.199277265858912 -3.6050687070206493 6.379570136536464 -3.6535805365106673 C 6.41362034921787 -3.662738381873579 6.446609807610134 -3.6756795842010908 6.480058926194359 -3.687065013571197 C 6.510290423434859 -3.697354330175859 6.535677809421618 -3.6877368246209863 6.558165800351393 -3.6678300024614527 C 6.597519784478499 -3.63296654482504 6.598721972672858 -3.5871066010578727 6.56011051654815 -3.5513238230375386 C 6.546462144694545 -3.5387008469967687 6.530303321023307 -3.528093304105365 6.513790912589022 -3.51935976045811 C 6.330598646854486 -3.422477535383292 6.142208685103162 -3.405717617614875 5.948868536669183 -3.486334943589541 C 5.714265046387645 -3.58413648904828 5.558970618457499 -3.825210580493574 5.565122993334513 -4.07922587426638 Z" fill="#382d5e" transform="matrix(1,0,0,1,0,0)" fill-rule="nonzero"></path></g><g clip-path="url(#SvgjsClipPath10005098b7b2-eeec-4321-9b21-00667db182ae)"><path d=" M 3.638298185587395 -1.2297569858249946 C 3.6622712325219666 -1.2288023069647682 3.6844409971649994 -1.2219074040853557 3.700423028454714 -1.2041220905041028 C 3.7078836669550013 -1.1958482070488081 3.713293513829617 -1.1854174565389286 3.714248192689843 -1.17431489497926 C 3.7176779648913967 -1.134642684565411 3.669802587974863 -1.1131093724958623 3.63115577337385 -1.1034918669409897 C 3.0016688197216688 -0.9467830999586568 2.378369599422806 -0.7652173241341353 1.7631674701977142 -0.5593956335646046 C 1.7386994045948772 -0.5511924670619193 1.7134180940370323 -0.5428832251303195 1.687677123287227 -0.5447925828507723 C 1.6619361525374212 -0.546701940571225 1.6353465783563035 -0.5615171421428853 1.627709147474493 -0.5861973586035507 C 1.616182284199168 -0.6235005511049856 1.6522479300299395 -0.6592833291253202 1.6889500284341952 -0.6726488331684886 C 2.2142355524164907 -0.8641856993109291 2.7621151427574753 -1.011276960738389 3.3033826980294854 -1.1528169413860145 C 3.3899756064996414 -1.1754463662210082 3.476639231922407 -1.1976868478166507 3.563444291250391 -1.2195737446492463 C 3.587205187327135 -1.225549327144737 3.6137240445556436 -1.230782381637829 3.6382981855873946 -1.229792344301298 Z" fill="#e37f7c" transform="matrix(1,0,0,1,0,0)" fill-rule="nonzero"></path></g><g clip-path="url(#SvgjsClipPath10005098b7b2-eeec-4321-9b21-00667db182ae)"><path d=" M 2.6003147551872687 -0.4292057238107807 C 2.5949756252652625 -0.4289228560003435 2.589636495343256 -0.429028931429257 2.584262006944945 -0.4295946670501323 C 2.553818358846617 -0.43270621296494394 2.522985767508938 -0.4555124301814608 2.5219603716961023 -0.4860975121850073 C 2.5202631648334775 -0.5383926986396261 2.589459702961732 -0.5584409547043787 2.628071159086441 -0.5735390240864762 C 2.694014717394665 -0.5993153533125861 2.7608422376105066 -0.6230408909130256 2.827492965444824 -0.6469785793712921 C 2.9607944211134605 -0.694853956287826 3.094838404784494 -0.7406078246260797 3.229589557981622 -0.7842401843860518 C 3.4990918643758775 -0.8714695454296923 3.771387490398202 -0.9501067967312959 4.045875341951417 -1.0199751459093398 C 4.183136946966177 -1.0549093204983615 4.320964287601811 -1.0876866280327984 4.459251288429407 -1.1182009930837347 C 4.4841436557479 -1.12368155691096 4.50999070192662 -1.1291267622618806 4.534847710768808 -1.1234694060531316 C 4.5597047196109965 -1.1178120498443835 4.583182747877302 -1.0976930768270217 4.58406670978492 -1.0722349738876535 C 4.585410331884498 -1.032562763473805 4.5380653321125335 -1.0120902056933967 4.499524592940435 -1.0024727001385236 C 3.881847370374016 -0.8484865358316518 3.2665391657200105 -0.6793315851900719 2.6730824994222955 -0.4489711120650952 C 2.6495691126796848 -0.439848625178489 2.625171764029457 -0.4304786289577489 2.600279396710964 -0.4292057238107807 Z" fill="#e37f7c" transform="matrix(1,0,0,1,0,0)" fill-rule="nonzero"></path></g><g clip-path="url(#SvgjsClipPath10005098b7b2-eeec-4321-9b21-00667db182ae)"><path d=" M 2.659221976710862 -1.1724055372588067 C 2.6581965808980264 -1.1681271616259408 2.656393298606488 -1.163990219898293 2.6537060544073325 -1.160171504457388 C 2.643982473423546 -1.1463109817459545 2.626515386129035 -1.1406536255372055 2.610321203981493 -1.1358448727597699 C 2.12262174031107 -0.9915469309603786 1.6348869181643424 -0.8472489891609882 1.1471874544939196 -0.7029864058379021 C 1.1163548631562403 -0.6938639189512958 1.078309142652407 -0.6864032804510085 1.055891868675241 -0.7094923654779635 C 1.035030367655481 -0.730990319071207 1.04174847815337 -0.7687531717646028 1.062150318981169 -0.7906754270735035 C 1.0825521598089682 -0.8125976823824042 1.1123593553338118 -0.8227102066055418 1.1408229287590774 -0.8320094858736722 C 1.6008367054829375 -0.9819294254055069 2.0622294627826796 -1.1245655188185775 2.5345833477368727 -1.2311713248771814 C 2.5640016000223644 -1.2377833599461563 2.5956120778387466 -1.2441125272046931 2.6235452741194423 -1.2328331732635012 C 2.647164736290967 -1.2232863846612378 2.6647378990143924 -1.1956360561909802 2.659186618234558 -1.1724055372588067 Z" fill="#e37f7c" transform="matrix(1,0,0,1,0,0)" fill-rule="nonzero"></path></g><g clip-path="url(#SvgjsClipPath10005098b7b2-eeec-4321-9b21-00667db182ae)"><path d=" M 6.015519264503502 -0.2513172295219466 C 5.806409235637636 -0.25177688971390744 5.597299206771771 -0.2522365499058683 5.38822453638221 -0.25273156857413426 C 5.350497042165118 -0.25280228552674266 5.303647061061421 -0.2589546604037567 5.29102408502065 -0.2945252875662625 C 5.266131717702157 -0.3647118630310482 5.352653909219705 -0.3841590249986213 5.400352493754715 -0.3841943834749264 C 5.808955045931573 -0.3844772512853627 6.2175929565847365 -0.38476011909580077 6.626195508761595 -0.38504298690623884 C 6.651830404082486 -0.38504298690623884 6.6782431858820805 -0.38493691147732356 6.70196872348252 -0.3751779720172328 C 6.725694261082959 -0.36541903255714203 6.7462728942922805 -0.3434614187719367 6.7464143281975 -0.31782652345104534 C 6.746555762102719 -0.2920148357486312 6.725835694988177 -0.26977435415298867 6.702004081958824 -0.25990933926398174 C 6.678172468929471 -0.2500443243749766 6.651512177795744 -0.24993824894606398 6.62570049009333 -0.2500089658986733 C 6.422318534388823 -0.25046862609063414 6.218936578684314 -0.2509282862825941 6.015554622979807 -0.2513525879982508 Z" fill="#e37f7c" transform="matrix(1,0,0,1,0,0)" fill-rule="nonzero"></path></g><g clip-path="url(#SvgjsClipPath10005098b7b2-eeec-4321-9b21-00667db182ae)"><path d=" M 4.488810974620118 -0.7450629926404693 C 4.497685952172592 -0.7453812189272115 4.506560929725066 -0.7448508417826418 4.515329831848627 -0.7430122010147984 C 4.540045406785596 -0.73788522195062 4.563877019814949 -0.7197816820826253 4.5675543013506354 -0.6948185978115218 C 4.5710194320284945 -0.6713759280215204 4.5557799287411775 -0.6483575599471747 4.535908465057949 -0.6354517160959681 C 4.51603700137472 -0.6225458722447605 4.492170029869062 -0.6176310440384105 4.468939510936888 -0.6128930082135833 C 4.149192809713686 -0.5472676761921011 3.834113427362701 -0.45883612695410214 3.526883626751354 -0.3484823224072011 C 3.4877064350057707 -0.3344096488379389 3.439901775041846 -0.3212562956525993 3.407831637033503 -0.34781051135741237 C 3.3897634556418126 -0.36276714683429123 3.379969157705417 -0.3897103057784559 3.3888441352578913 -0.41138505175322315 C 3.406594090362839 -0.45476990217906277 3.550467730446574 -0.4978718847944661 3.605874462816004 -0.5156925568520236 C 3.698160085971214 -0.5454290354242577 3.790940727794689 -0.5735390240864762 3.8841810298101245 -0.60002252283868 C 4.067939031165536 -0.6522469923406886 4.253464956336181 -0.6981776530604664 4.44036986208271 -0.7377437880454005 C 4.456316534896119 -0.7411028432943456 4.472616792472575 -0.7444265400669852 4.488810974620118 -0.7449922756878595 Z" fill="#e37f7c" transform="matrix(1,0,0,1,0,0)" fill-rule="nonzero"></path></g><g clip-path="url(#SvgjsClipPath10005098b7b2-eeec-4321-9b21-00667db182ae)"><path d=" M 4.313150064338478 -0.764156569844995 C 4.3091191980397445 -0.764156569844995 4.305088331741011 -0.7642980037502136 4.301057465442279 -0.764651588513261 C 4.277225852412925 -0.7669145309967607 4.252899220715307 -0.7786181866536088 4.241832017631943 -0.7998686309127203 C 4.20205373178918 -0.8763843736360437 4.3398103554722045 -0.8905277641579148 4.380154376935842 -0.9011353070493184 C 4.469363812652546 -0.9246133353156245 4.558891474655989 -0.946853816911267 4.648666645993567 -0.9679274687888548 C 4.825459027516956 -1.009367603017938 5.003347521805791 -1.0461757768511077 5.182119978002243 -1.0782105563831461 C 5.229747845584645 -1.086767307648878 5.277517147072265 -1.0949704741515633 5.32571075027554 -1.0995317175948665 C 5.349011986160323 -1.1017239431257564 5.373197183952723 -1.102996848272725 5.395154797737928 -1.094899757198954 C 5.417112411523132 -1.0868380246014873 5.436382781109183 -1.0671079948234774 5.436948516730057 -1.0437360419860848 C 5.437443535398323 -1.0224855977269738 5.422486899921444 -1.0032859450935332 5.404100492243011 -0.9925723267732156 C 5.385714084564579 -0.9818587084528985 5.364251489447639 -0.9780753514882985 5.34331927147527 -0.9743980699526111 C 5.017596987756576 -0.9173648476731651 4.6936072693768125 -0.8503958935521059 4.371986568909462 -0.7735972830183449 C 4.352645482370803 -0.7689653226224324 4.332915452592793 -0.7642980037502145 4.313114705862173 -0.7641565698449959 Z" fill="#e37f7c" transform="matrix(1,0,0,1,0,0)" fill-rule="nonzero"></path></g><g clip-path="url(#SvgjsClipPath10005098b7b2-eeec-4321-9b21-00667db182ae)"><path d=" M 4.47537475362434 -0.4079552795516701 C 4.45118955583194 -0.41025358051147354 4.426827565658018 -0.42185116073940865 4.415371419335302 -0.44313696347482434 C 4.360388988681528 -0.5451108091375145 4.728293934631701 -0.6035937289454534 4.788863004541614 -0.6183382135645035 C 4.958795841661896 -0.659707630840976 5.130638036502632 -0.6928031646621546 5.302338797438148 -0.7258986984833333 C 5.331827766676249 -0.7315914131683865 5.362660358013928 -0.7372134109008313 5.391477516202241 -0.7287627350640129 C 5.420294674390553 -0.7203120592271937 5.44596492818775 -0.692909240091069 5.441686552554883 -0.6632081199951392 C 5.435993837869831 -0.6236066265339 5.387623442285031 -0.6086853495333262 5.348163382729011 -0.6020025975117429 C 5.080429000149989 -0.5564962385076226 4.815240427864905 -0.49592716859770913 4.5542948727363814 -0.42068433102135394 C 4.529791448657239 -0.4136126357604182 4.504793005909832 -0.4063641481179596 4.479334902970464 -0.4077077702175371 C 4.478026639347191 -0.4077784871701464 4.476718375723918 -0.4078845625990599 4.47537475362434 -0.4079906380279734 Z" fill="#e37f7c" transform="matrix(1,0,0,1,0,0)" fill-rule="nonzero"></path></g><g clip-path="url(#SvgjsClipPath10005098b7b2-eeec-4321-9b21-00667db182ae)"><path d=" M 6.0087304370530035 -0.6288396810269923 C 5.922950773537854 -0.6281678699772035 5.837171110022706 -0.6275314174037199 5.751391446507558 -0.6268596063539311 C 5.716351196489621 -0.6265767385434939 5.67816404208057 -0.6273546250221971 5.650938015325966 -0.6494183142363159 C 5.576013404036354 -0.710128818051448 5.681417021900599 -0.7631665325084653 5.733853642260438 -0.7630958155558556 C 5.9175762851395435 -0.7628129477454189 6.101334286494955 -0.7625654384112854 6.285056929374061 -0.7622825706008483 C 6.312565823939101 -0.7622472121245432 6.341064755840671 -0.7619997027904106 6.36599248163547 -0.7503667640861718 C 6.390920207430269 -0.7387338253819333 6.411215972829154 -0.7123210435823379 6.4065486539569365 -0.6852010922566496 C 6.40280065546864 -0.6634909878055781 6.38413137997977 -0.6468017869897711 6.363482029817838 -0.639128997631655 C 6.342832679655906 -0.6314562082735398 6.320309330249826 -0.6312086989394068 6.298280999512011 -0.631031906557884 C 6.201787717676545 -0.630289378555486 6.105259077364774 -0.629546850553087 6.008765795529309 -0.6288043225506881 Z" fill="#e37f7c" transform="matrix(1,0,0,1,0,0)" fill-rule="nonzero"></path></g><g clip-path="url(#SvgjsClipPath10005098b7b2-eeec-4321-9b21-00667db182ae)"><path d=" M 6.015908207742854 -0.9921480250575585 C 5.924152961732215 -0.9916530063892925 5.832397715721575 -0.9912994216262461 5.740642469710936 -0.99140549705516 C 5.70733478503193 -0.9914408555314651 5.671127705295939 -0.9925723267732143 5.645316017593524 -1.0136459786508025 C 5.620600442656555 -1.0338710270970783 5.618125349315227 -1.0747454257052858 5.639552585955862 -1.0984709633057248 C 5.663667066795652 -1.1251666129157565 5.712037462380451 -1.1235401230057418 5.74506227924902 -1.1242826510081394 C 5.929350657749001 -1.1285256681647011 6.113709753201593 -1.1290560453092713 6.297998131701574 -1.1258384239655457 C 6.321688310825707 -1.1254141222498895 6.346014942523325 -1.12481302815271 6.367866480879616 -1.115690541266103 C 6.389718019235907 -1.1065680543794958 6.408846954916738 -1.086838024601486 6.410084501587402 -1.0631832039536562 C 6.411428123686981 -1.0376190255853737 6.391450584574838 -1.0147774498925521 6.367972556308531 -1.0045588502405 C 6.344494528042224 -0.994340250588448 6.318081746242631 -0.9940220243017066 6.292482209398044 -0.9938452319201834 C 6.243652153621284 -0.9935270056334411 6.194822097844524 -0.9932087793466984 6.145992042067763 -0.9929259115362612 C 6.102642550118228 -0.9926430437258245 6.059257699692388 -0.9923601759153864 6.015908207742853 -0.9921480250575585 Z" fill="#e37f7c" transform="matrix(1,0,0,1,0,0)" fill-rule="nonzero"></path></g><g clip-path="url(#SvgjsClipPath10005098b7b2-eeec-4321-9b21-00667db182ae)"><path d=" M 8.394720418092671 -1.2297569858249946 C 8.3707473711581 -1.2288023069647682 8.348577606515066 -1.2219074040853557 8.332595575225351 -1.2041220905041028 C 8.325134936725064 -1.1958482070488081 8.31972508985045 -1.1854174565389286 8.318770410990224 -1.17431489497926 C 8.315340638788669 -1.134642684565411 8.363216015705206 -1.1131093724958623 8.401862830306216 -1.1034918669409897 C 9.0313497839584 -0.9467830999586568 9.654649004257262 -0.7652173241341353 10.269851133482351 -0.5593956335646046 C 10.29431919908519 -0.5511924670619193 10.319600509643035 -0.5428832251303195 10.34534148039284 -0.5447925828507723 C 10.371082451142644 -0.546701940571225 10.397672025323764 -0.5615171421428853 10.405309456205575 -0.5861973586035507 C 10.416836319480897 -0.6235005511049856 10.380770673650126 -0.6592833291253202 10.34406857524587 -0.6726488331684886 C 9.818783051263576 -0.8641856993109291 9.27090346092259 -1.011276960738389 8.72963590565058 -1.1528169413860145 C 8.643042997180423 -1.1754463662210082 8.556379371757657 -1.1976868478166507 8.469574312429675 -1.2195737446492463 C 8.44581341635293 -1.225549327144737 8.41929455912442 -1.230782381637829 8.394720418092671 -1.229792344301298 Z" fill="#e37f7c" transform="matrix(1,0,0,1,0,0)" fill-rule="nonzero"></path></g><g clip-path="url(#SvgjsClipPath10005098b7b2-eeec-4321-9b21-00667db182ae)"><path d=" M 9.43266849001649 -0.4292057238107807 C 9.4380076199385 -0.4289228560003435 9.443346749860506 -0.429028931429257 9.448721238258816 -0.4295946670501323 C 9.479164886357143 -0.43270621296494394 9.50999747769482 -0.4555124301814608 9.51102287350766 -0.4860975121850073 C 9.512720080370283 -0.5383926986396261 9.443523542242026 -0.5584409547043787 9.404912086117317 -0.5735390240864762 C 9.338968527809094 -0.5993153533125861 9.272141007593252 -0.6230408909130256 9.205490279758934 -0.6469785793712921 C 9.072188824090297 -0.694853956287826 8.938144840419262 -0.7406078246260797 8.803393687222137 -0.7842401843860518 C 8.533891380827882 -0.8714695454296923 8.261595754805558 -0.9501067967312959 7.987107903252341 -1.0199751459093398 C 7.8498462982375825 -1.0549093204983615 7.7120189576019476 -1.0876866280327984 7.573731956774352 -1.1182009930837347 C 7.548839589455858 -1.12368155691096 7.522992543277139 -1.1291267622618806 7.49813553443495 -1.1234694060531316 C 7.473278525592761 -1.1178120498443835 7.449800497326455 -1.0976930768270217 7.448916535418839 -1.0722349738876535 C 7.447572913319259 -1.032562763473805 7.494917913091224 -1.0120902056933967 7.533458652263324 -1.0024727001385236 C 8.151135874829741 -0.8484865358316518 8.766444079483747 -0.6793315851900719 9.359900745781463 -0.4489711120650952 C 9.383414132524074 -0.439848625178489 9.4078114811743 -0.4304786289577489 9.432703848492793 -0.4292057238107807 Z" fill="#e37f7c" transform="matrix(1,0,0,1,0,0)" fill-rule="nonzero"></path></g><g clip-path="url(#SvgjsClipPath10005098b7b2-eeec-4321-9b21-00667db182ae)"><path d=" M 9.373761268492899 -1.1724055372588067 C 9.374786664305734 -1.1681271616259408 9.376589946597274 -1.163990219898293 9.37927719079643 -1.160171504457388 C 9.389000771780214 -1.1463109817459545 9.406467859074723 -1.1406536255372055 9.422662041222267 -1.1358448727597699 C 9.910361504892691 -0.9915469309603786 10.398096327039418 -0.8472489891609882 10.885795790709842 -0.7029864058379021 C 10.91662838204752 -0.6938639189512958 10.954674102551355 -0.6864032804510085 10.97709137652852 -0.7094923654779635 C 10.997952877548279 -0.730990319071207 10.99123476705039 -0.7687531717646028 10.970832926222592 -0.7906754270735035 C 10.950431085394793 -0.8126330408587088 10.920623889869951 -0.8227102066055418 10.892160316444684 -0.8320094858736722 C 10.432146539720826 -0.9819294254055069 9.970753782421081 -1.1245655188185775 9.49839989746689 -1.2311713248771814 C 9.468981645181398 -1.2377833599461563 9.437371167365015 -1.2441125272046931 9.409437971084323 -1.2328331732635012 C 9.385818508912799 -1.2232863846612378 9.368245346189372 -1.1956360561909802 9.373796626969206 -1.1724055372588067 Z" fill="#e37f7c" transform="matrix(1,0,0,1,0,0)" fill-rule="nonzero"></path></g><g clip-path="url(#SvgjsClipPath10005098b7b2-eeec-4321-9b21-00667db182ae)"><path d=" M 7.544172270583643 -0.7450629926404693 C 7.535297293031169 -0.7453812189272115 7.526422315478695 -0.7448508417826418 7.517653413355135 -0.7430122010147984 C 7.492937838418165 -0.73788522195062 7.469106225388812 -0.7197816820826253 7.465428943853126 -0.6948185978115218 C 7.461963813175267 -0.6713759280215204 7.477203316462583 -0.6483575599471747 7.497074780145812 -0.6354517160959681 C 7.516946243829041 -0.6225458722447597 7.5408132153346985 -0.6176310440384105 7.564043734266872 -0.6128930082135833 C 7.8837904354900745 -0.5472676761921011 8.19886981784106 -0.45883612695410214 8.506099618452406 -0.3484823224072011 C 8.54527681019799 -0.3344096488379389 8.593081470161914 -0.3212562956525993 8.625151608170258 -0.34781051135741237 C 8.643219789561948 -0.36276714683429123 8.652731219687908 -0.3895688718732373 8.644139109945868 -0.41138505175322315 C 8.629500700755733 -0.44847609339683014 8.482515514757186 -0.4978718847944661 8.427108782387755 -0.5156925568520236 C 8.334823159232545 -0.5454290354242577 8.242042517409072 -0.5735390240864762 8.148802215393637 -0.60002252283868 C 7.965044214038224 -0.6522469923406886 7.779518288867579 -0.6981776530604664 7.592613383121052 -0.7377437880454005 C 7.576666710307642 -0.7411028432943456 7.560366452731186 -0.7444265400669852 7.544172270583643 -0.7449922756878595 Z" fill="#e37f7c" transform="matrix(1,0,0,1,0,0)" fill-rule="nonzero"></path></g><g clip-path="url(#SvgjsClipPath10005098b7b2-eeec-4321-9b21-00667db182ae)"><path d=" M 7.719868539341588 -0.764156569844995 C 7.723899405640322 -0.764156569844995 7.727930271939054 -0.7642980037502136 7.7319611382377875 -0.764651588513261 C 7.755792751267141 -0.7669145309967607 7.7801193829647595 -0.7786181866536088 7.7911865860481235 -0.7998686309127203 C 7.830964871890886 -0.8763843736360437 7.693208248207861 -0.8905277641579148 7.652864226744224 -0.9011353070493184 C 7.563654791027521 -0.9246133353156245 7.474127129024077 -0.946853816911267 7.3843519576864995 -0.9679274687888548 C 7.20755957616311 -1.009367603017938 7.029671081874275 -1.0461757768511077 6.850898625677824 -1.0782105563831461 C 6.803270758095422 -1.086767307648878 6.755501456607802 -1.0949704741515633 6.707307853404527 -1.0995317175948665 C 6.684006617519744 -1.1017239431257564 6.6598214197273435 -1.102996848272725 6.637863805942139 -1.094899757198954 C 6.615906192156934 -1.0868380246014873 6.596635822570883 -1.0671079948234774 6.59607008695001 -1.0437360419860848 C 6.595575068281744 -1.0224855977269738 6.610531703758623 -1.0032859450935332 6.628918111437055 -0.9925723267732156 C 6.6473045191154885 -0.9818940669292036 6.668767114232428 -0.9780753514882985 6.689699332204797 -0.9743980699526111 C 7.015421615923491 -0.9173648476731651 7.339411334303254 -0.8503958935521059 7.661032034770606 -0.7735972830183449 C 7.680373121309263 -0.7689653226224324 7.700103151087275 -0.7642980037502145 7.719903897817894 -0.7641565698449959 Z" fill="#e37f7c" transform="matrix(1,0,0,1,0,0)" fill-rule="nonzero"></path></g><g clip-path="url(#SvgjsClipPath10005098b7b2-eeec-4321-9b21-00667db182ae)"><path d=" M 7.557643850055726 -0.4079552795516701 C 7.581829047848125 -0.41025358051147354 7.606191038022049 -0.42185116073940865 7.617647184344765 -0.44313696347482434 C 7.672629614998539 -0.5451108091375145 7.3047246690483645 -0.6035937289454534 7.244155599138451 -0.6183382135645035 C 7.074222762018169 -0.659707630840976 6.902380567177434 -0.6928031646621546 6.730679806241918 -0.7258986984833333 C 6.701190837003817 -0.7315914131683865 6.670358245666137 -0.7372134109008313 6.641541087477825 -0.7287627350640129 C 6.612723929289512 -0.7203120592271937 6.5870536754923155 -0.692909240091069 6.591332051125182 -0.6632081199951392 C 6.597024765810234 -0.6236066265339 6.645395161395035 -0.6086853495333262 6.6848552209510546 -0.6020025975117429 C 6.952589603530076 -0.5564962385076226 7.217778175815161 -0.49592716859770913 7.478723730943684 -0.42068433102135394 C 7.5032271550228264 -0.4136126357604182 7.528225597770233 -0.4063641481179596 7.553683700709602 -0.4077077702175371 C 7.554991964332874 -0.4077784871701464 7.5563002279561475 -0.4078845625990599 7.557643850055725 -0.4079906380279734 Z" fill="#e37f7c" transform="matrix(1,0,0,1,0,0)" fill-rule="nonzero"></path></g><g clip-path="url(#SvgjsClipPath10005098b7b2-eeec-4321-9b21-00667db182ae)"><path d=" M 2.7857699634053046 -2.4845939514017097 C 2.7857699634053046 -2.4845939514017097 2.8416717144430006 -2.483816064923007 2.916985268971964 -2.4962268901059486 C 2.992298823500928 -2.5086377152888906 3.025535791227326 -2.5898914938370408 2.9534752165183917 -2.6521577706095782 C 2.8814146418094584 -2.7144594058584213 2.7458148851810185 -2.8326627921449594 2.753028014347173 -2.890084957663756 C 2.8013630514556676 -2.892489334052474 2.819113006560616 -2.8896252974717953 2.8645486486121268 -2.8958483893014186 C 2.909984290663638 -2.902071481131042 2.9534752165183917 -2.9473656892773343 2.920874701365479 -3.0156429070216673 C 2.8883095446888705 -3.0839201247660006 2.7436580181264327 -3.1777968793549203 2.688746304425268 -3.2792757063493463 C 2.688746304425268 -3.2792757063493463 2.7701768753549416 -3.3097900714002835 2.7925587908558027 -3.3339399107163783 C 2.814940706356664 -3.358089750032473 2.810839123105321 -3.3899123787066836 2.7996304861167385 -3.421911799762417 C 2.7884218491281554 -3.4539112208181506 2.6664351058770164 -3.7682480751667375 2.653104960310153 -3.800777873367041 C 2.6397748147432893 -3.8333076715673444 2.617534333147647 -3.8516587207694726 2.5780742735916267 -3.8516587207694726 C 2.538614214035606 -3.8516587207694726 2.5163737324399635 -3.8333076715673444 2.5030435868731 -3.800777873367041 C 2.489713441306236 -3.7682480751667375 2.367691339578793 -3.45391122081815 2.3565180610665144 -3.421911799762417 C 2.3453447825542364 -3.3899123787066836 2.3412078408265886 -3.358089750032473 2.3635897563274497 -3.3339399107163783 C 2.385971671828311 -3.3097900714002835 2.4674022427579843 -3.2792757063493463 2.4674022427579843 -3.2792757063493463 C 2.4124905290568197 -3.1777968793549203 2.267874360970687 -3.0839201247660006 2.2352738458177734 -3.0156429070216673 C 2.202708689141165 -2.9473656892773343 2.2461642565196143 -2.902071481131042 2.2915998985711257 -2.8958483893014186 C 2.3370355406226366 -2.8896252974717953 2.354785495727585 -2.89245397557617 2.4031205328360796 -2.890084957663756 C 2.410333662002234 -2.8326627921449594 2.274733905373794 -2.7144594058584213 2.2026733306648607 -2.6521577706095782 C 2.1306127559559274 -2.5898561353607357 2.163849723682324 -2.5086377152888906 2.2391632782112882 -2.4962268901059486 C 2.3144768327402523 -2.483816064923007 2.3703785837779483 -2.4845939514017097 2.3703785837779483 -2.4845939514017097 C 2.3459105181751108 -2.3604503410959854 2.1121556313248853 -2.298290139752362 2.1121556313248853 -2.121533116705277 C 2.1121556313248853 -1.944776093658192 2.2539784797829485 -1.8210214265918188 2.492047100742345 -1.798639511090958 L 2.492047100742345 -1.3863243189021088 L 2.563930883069755 -1.3980986915115663 L 2.5780742735916267 -1.3863243189021088 L 2.5922176641134977 -1.3980986915115663 L 2.664101446440908 -1.3863243189021088 L 2.664101446440908 -1.798639511090958 C 2.902170067400304 -1.8210214265918192 3.0439929158583676 -1.9447760936581924 3.0439929158583676 -2.121533116705277 C 3.0439929158583676 -2.2982901397523614 2.8102380290081417 -2.3604503410959854 2.785769963405305 -2.48459395140171 Z" fill="#c84449" transform="matrix(1,0,0,1,0,0)" fill-rule="nonzero"></path></g><g clip-path="url(#SvgjsClipPath10005098b7b2-eeec-4321-9b21-00667db182ae)"><path d=" M 3.871275185958918 -2.4845939514017097 C 3.871275185958918 -2.4845939514017097 3.927176936996613 -2.483816064923007 4.0024904915255775 -2.4962268901059486 C 4.077804046054542 -2.5086377152888906 4.111041013780939 -2.5898914938370408 4.038980439072005 -2.6521577706095782 C 3.966919864363072 -2.7144594058584213 3.8313201077346317 -2.8326627921449594 3.8385332369007865 -2.890084957663756 C 3.886868274009281 -2.892489334052474 3.9046182291142295 -2.8896252974717953 3.9500538711657405 -2.8958483893014186 C 3.995489513217251 -2.902071481131042 4.038980439072005 -2.9473656892773343 4.006379923919092 -3.0156429070216673 C 3.9738147672424837 -3.0839201247660006 3.8291632406800464 -3.1777968793549203 3.7742515269788814 -3.2792757063493463 C 3.7742515269788814 -3.2792757063493463 3.855682097908555 -3.3097900714002835 3.878064013409416 -3.3339399107163783 C 3.900445928910277 -3.358089750032473 3.8963443456589344 -3.3899123787066836 3.8851357086703517 -3.421911799762417 C 3.873927071681769 -3.4539112208181506 3.7519403284306296 -3.7682480751667375 3.7386101828637663 -3.800777873367041 C 3.725280037296903 -3.8333076715673444 3.7030395557012605 -3.8516587207694726 3.66357949614524 -3.8516587207694726 C 3.624119436589219 -3.8516587207694726 3.6018789549935764 -3.8333076715673444 3.588548809426713 -3.800777873367041 C 3.5752186638598498 -3.7682480751667375 3.453196562132406 -3.45391122081815 3.442023283620127 -3.421911799762417 C 3.430850005107849 -3.3899123787066836 3.426713063380202 -3.358089750032473 3.4490949788810634 -3.3339399107163783 C 3.4714768943819245 -3.3097900714002835 3.552907465311598 -3.2792757063493463 3.552907465311598 -3.2792757063493463 C 3.4979957516104325 -3.1777968793549203 3.3533795835243003 -3.0839201247660006 3.320779068371387 -3.0156429070216673 C 3.288213911694778 -2.9473656892773343 3.331669479073228 -2.902071481131042 3.3771051211247385 -2.8958483893014186 C 3.42254076317625 -2.8896252974717953 3.440290718281198 -2.89245397557617 3.488625755389693 -2.890084957663756 C 3.495838884555847 -2.8326627921449594 3.3602391279274073 -2.7144594058584213 3.288178553218474 -2.6521577706095782 C 3.21611797850954 -2.5898561353607357 3.2493549462359375 -2.5086377152888906 3.3246685007649015 -2.4962268901059486 C 3.399982055293866 -2.483816064923007 3.4558838063315616 -2.4845939514017097 3.4558838063315616 -2.4845939514017097 C 3.4314157407287245 -2.3604503410959854 3.197660853878499 -2.298290139752362 3.197660853878499 -2.121533116705277 C 3.197660853878499 -1.944776093658192 3.339483702336562 -1.8210214265918188 3.5775523232959587 -1.798639511090958 L 3.5775523232959587 -1.3863243189021088 L 3.649436105623369 -1.3980986915115663 L 3.6635794961452404 -1.3863243189021088 L 3.6777228866671114 -1.3980986915115663 L 3.7496066689945216 -1.3863243189021088 L 3.7496066689945216 -1.798639511090958 C 3.9876752899539185 -1.8210214265918192 4.129498138411982 -1.9447760936581924 4.129498138411982 -2.121533116705277 C 4.129498138411982 -2.2982901397523614 3.895743251561756 -2.3604503410959854 3.871275185958919 -2.48459395140171 Z" fill="#c84449" transform="matrix(1,0,0,1,0,0)" fill-rule="nonzero"></path></g><g clip-path="url(#SvgjsClipPath10005098b7b2-eeec-4321-9b21-00667db182ae)"><path d=" M 9.280379532572244 -2.4845939514017097 C 9.280379532572244 -2.4845939514017097 9.22447778153455 -2.483816064923007 9.149164227005585 -2.4962268901059486 C 9.07385067247662 -2.5086377152888906 9.040613704750223 -2.5898914938370408 9.112674279459156 -2.6521577706095782 C 9.184734854168088 -2.7144594058584213 9.320334610796529 -2.8326627921449594 9.313121481630375 -2.890084957663756 C 9.264786444521881 -2.892489334052474 9.247036489416931 -2.8896252974717953 9.20160084736542 -2.8958483893014186 C 9.156165205313911 -2.902071481131042 9.112674279459156 -2.9473656892773343 9.145274794612071 -3.0156429070216673 C 9.177839951288679 -3.0839201247660006 9.322491477851116 -3.1777968793549203 9.377403191552283 -3.2792757063493463 C 9.377403191552283 -3.2792757063493463 9.295972620622607 -3.3097900714002835 9.273590705121745 -3.3339399107163783 C 9.251208789620886 -3.358089750032473 9.255310372872227 -3.3899123787066836 9.266519009860811 -3.421911799762417 C 9.277727646849396 -3.4539112208181506 9.399714390100531 -3.7682480751667375 9.413044535667396 -3.800777873367041 C 9.426410039710564 -3.8333076715673444 9.448615162829903 -3.8516587207694726 9.488075222385923 -3.8516587207694726 C 9.527535281941944 -3.8516587207694726 9.549775763537586 -3.8333076715673444 9.563105909104447 -3.800777873367041 C 9.576471413147619 -3.7682480751667375 9.698458156398754 -3.45391122081815 9.709631434911035 -3.421911799762417 C 9.720840071899616 -3.3899123787066836 9.724941655150957 -3.358089750032473 9.702559739650098 -3.3339399107163783 C 9.680177824149236 -3.3097900714002835 9.598747253219564 -3.2792757063493463 9.598747253219564 -3.2792757063493463 C 9.65365896692073 -3.1777968793549203 9.798275135006861 -3.0839201247660006 9.830875650159772 -3.0156429070216673 C 9.863440806836383 -2.9473656892773343 9.819985239457935 -2.902071481131042 9.774549597406423 -2.8958483893014186 C 9.729113955354912 -2.8896252974717953 9.711364000249965 -2.89245397557617 9.663028963141468 -2.890084957663756 C 9.655815833975314 -2.8326627921449594 9.791415590603755 -2.7144594058584213 9.863476165312687 -2.6521577706095782 C 9.935536740021622 -2.5898561353607357 9.902299772295226 -2.5086377152888906 9.826986217766262 -2.4962268901059486 C 9.751672663237294 -2.483816064923007 9.695770912199599 -2.4845939514017097 9.695770912199599 -2.4845939514017097 C 9.720238977802435 -2.3604503410959854 9.953993864652663 -2.298290139752362 9.953993864652663 -2.121533116705277 C 9.953993864652663 -1.944776093658192 9.8121710161946 -1.8210214265918188 9.574102395235204 -1.798639511090958 L 9.574102395235204 -1.3863243189021088 C 9.574102395235204 -1.3863243189021088 9.502218612907793 -1.3980986915115663 9.502218612907793 -1.3980986915115663 L 9.488075222385923 -1.3863243189021088 L 9.47393183186405 -1.3980986915115663 L 9.402048049536639 -1.3863243189021088 L 9.402048049536639 -1.798639511090958 C 9.163979428577246 -1.8210214265918192 9.02215658011918 -1.9447760936581924 9.02215658011918 -2.121533116705277 C 9.02215658011918 -2.2982901397523614 9.255911466969408 -2.3604503410959854 9.280379532572244 -2.48459395140171 Z" fill="#c84449" transform="matrix(1,0,0,1,0,0)" fill-rule="nonzero"></path></g><g clip-path="url(#SvgjsClipPath10005098b7b2-eeec-4321-9b21-00667db182ae)"><path d=" M 8.194874310018632 -2.4845939514017097 C 8.194874310018632 -2.4845939514017097 8.138972558980935 -2.483816064923007 8.063659004451972 -2.4962268901059486 C 7.988345449923008 -2.5086377152888906 7.955108482196612 -2.5898914938370408 8.027169056905546 -2.6521577706095782 C 8.099229631614477 -2.7144594058584213 8.234829388242918 -2.8326627921449594 8.227616259076765 -2.890084957663756 C 8.17928122196827 -2.892489334052474 8.16153126686332 -2.8896252974717953 8.116095624811809 -2.8958483893014186 C 8.0706599827603 -2.902071481131042 8.027169056905546 -2.9473656892773343 8.059769572058459 -3.0156429070216673 C 8.092334728735066 -3.0839201247660006 8.236986255297504 -3.1777968793549203 8.291897968998668 -3.2792757063493463 C 8.291897968998668 -3.2792757063493463 8.210467398068996 -3.3097900714002835 8.188085482568134 -3.3339399107163783 C 8.165703567067272 -3.358089750032473 8.169805150318616 -3.3899123787066836 8.181013787307197 -3.421911799762417 C 8.192222424295782 -3.4539112208181506 8.31420916754692 -3.7682480751667375 8.327539313113784 -3.800777873367041 C 8.340904817156952 -3.8333076715673444 8.363109940276289 -3.8516587207694726 8.40256999983231 -3.8516587207694726 C 8.44203005938833 -3.8516587207694726 8.464270540983971 -3.8333076715673444 8.477600686550836 -3.800777873367041 C 8.490966190594005 -3.7682480751667375 8.612952933845143 -3.45391122081815 8.624126212357421 -3.421911799762417 C 8.635334849346004 -3.3899123787066836 8.639436432597346 -3.358089750032473 8.617054517096484 -3.3339399107163783 C 8.594672601595624 -3.3097900714002835 8.51324203066595 -3.2792757063493463 8.51324203066595 -3.2792757063493463 C 8.568153744367116 -3.1777968793549203 8.712769912453247 -3.0839201247660006 8.745370427606161 -3.0156429070216673 C 8.777935584282769 -2.9473656892773343 8.734480016904321 -2.902071481131042 8.68904437485281 -2.8958483893014186 C 8.6436087328013 -2.8896252974717953 8.625858777696351 -2.89245397557617 8.577523740587857 -2.890084957663756 C 8.5703106114217 -2.8326627921449594 8.70591036805014 -2.7144594058584213 8.777970942759076 -2.6521577706095782 C 8.85003151746801 -2.5898561353607357 8.816794549741612 -2.5086377152888906 8.741480995212648 -2.4962268901059486 C 8.666167440683683 -2.483816064923007 8.610265689645987 -2.4845939514017097 8.610265689645987 -2.4845939514017097 C 8.634733755248824 -2.3604503410959854 8.86848864209905 -2.298290139752362 8.86848864209905 -2.121533116705277 C 8.86848864209905 -1.944776093658192 8.726665793640986 -1.8210214265918188 8.48859717268159 -1.798639511090958 L 8.48859717268159 -1.3863243189021088 C 8.48859717268159 -1.3863243189021088 8.416713390354179 -1.3980986915115663 8.416713390354179 -1.3980986915115663 L 8.40256999983231 -1.3863243189021088 L 8.388426609310438 -1.3980986915115663 L 8.316542826983028 -1.3863243189021088 L 8.316542826983028 -1.798639511090958 C 8.078474206023632 -1.8210214265918192 7.936651357565569 -1.9447760936581924 7.936651357565569 -2.121533116705277 C 7.936651357565569 -2.2982901397523614 8.170406244415794 -2.3604503410959854 8.19487431001863 -2.48459395140171 Z" fill="#c84449" transform="matrix(1,0,0,1,0,0)" fill-rule="nonzero"></path></g><g clip-path="url(#SvgjsClipPath10005098b7b2-eeec-4321-9b21-00667db182ae)"><path d=" M 10.944490861375606 -1.3048230310198257 L 1.1216586346019406 -1.304823031019827 C 1.0806499416720496 -1.304823031019827 1.047405834362118 -1.3380671383297598 1.047405834362118 -1.3790758312596507 L 1.047405834362118 -1.3790758312596507 C 1.047405834362118 -1.4200845241895412 1.0806499416720496 -1.4533286314994744 1.1216586346019406 -1.4533286314994744 L 10.944490861375606 -1.4533286314994731 C 10.985499554305498 -1.4533286314994731 11.018743661615432 -1.42008452418954 11.018743661615432 -1.3790758312596494 L 11.018743661615432 -1.3790758312596494 C 11.018743661615432 -1.3380671383297584 10.985499554305498 -1.3048230310198257 10.944490861375606 -1.3048230310198257 Z" fill="#382d5e" transform="matrix(1,0,0,1,0,0)" fill-rule="nonzero"></path></g><g clip-path="url(#SvgjsClipPath10005098b7b2-eeec-4321-9b21-00667db182ae)"><path d=" M 6.957115488497076 -4.046448566731944 L 7.376785243757298 -4.046448566731944 C 7.414884272284068 -4.046448566731944 7.445769631027725 -4.015563207988287 7.445769631027725 -3.977464179461517 L 7.445769631027725 -3.9774288209852124 C 7.445769631027725 -3.9393297924584423 7.414884272284068 -3.9084444337147857 7.376785243757298 -3.9084444337147857 L 6.957115488497076 -3.9084444337147857 C 6.919016459970305 -3.9084444337147857 6.888131101226648 -3.9393297924584423 6.888131101226648 -3.9774288209852124 L 6.888131101226648 -3.977464179461517 C 6.888131101226648 -4.015563207988287 6.919016459970305 -4.046448566731944 6.957115488497076 -4.046448566731944 Z" fill="#382d5e" transform="matrix(1,0,0,1,0,0)" fill-rule="nonzero"></path></g><g clip-path="url(#SvgjsClipPath10005098b7b2-eeec-4321-9b21-00667db182ae)"><path d=" M 7.050214356607293 -3.180696274411904 L 7.644873211099367 -3.180696274411904 C 7.682972239626136 -3.180696274411904 7.713857598369793 -3.149810915668248 7.713857598369793 -3.1117118871414777 L 7.713857598369793 -3.111676528665173 C 7.713857598369793 -3.073577500138403 7.682972239626136 -3.0426921413947463 7.644873211099367 -3.0426921413947463 L 7.050214356607293 -3.0426921413947463 C 7.012115328080522 -3.0426921413947463 6.981229969336866 -3.073577500138403 6.981229969336866 -3.111676528665173 L 6.981229969336866 -3.1117118871414777 C 6.981229969336866 -3.149810915668248 7.012115328080522 -3.180696274411904 7.050214356607293 -3.180696274411904 Z" fill="#382d5e" transform="matrix(1,0,0,1,0,0)" fill-rule="nonzero"></path></g><g clip-path="url(#SvgjsClipPath10005098b7b2-eeec-4321-9b21-00667db182ae)"><path d=" M 4.351584728081663 -1.8992343761777666 L 4.63236638841711 -1.8992343761777666 C 4.6704654169438795 -1.8992343761777666 4.701350775687537 -1.86834901743411 4.701350775687537 -1.8302499889073398 L 4.701350775687537 -1.8302146304310352 C 4.701350775687537 -1.7921156019042654 4.6704654169438795 -1.7612302431606084 4.63236638841711 -1.7612302431606084 L 4.351584728081663 -1.7612302431606084 C 4.313485699554892 -1.7612302431606084 4.282600340811236 -1.7921156019042654 4.282600340811236 -1.8302146304310352 L 4.282600340811236 -1.8302499889073398 C 4.282600340811236 -1.86834901743411 4.313485699554892 -1.8992343761777666 4.351584728081663 -1.8992343761777666 Z" fill="#382d5e" transform="matrix(1,0,0,1,0,0)" fill-rule="nonzero"></path></g><g clip-path="url(#SvgjsClipPath10005098b7b2-eeec-4321-9b21-00667db182ae)"><path d=" M 4.486406598231399 -4.046448566731944 L 5.047899201949685 -4.046448566731944 C 5.085998230476455 -4.046448566731944 5.116883589220111 -4.015563207988287 5.116883589220111 -3.977464179461517 L 5.116883589220111 -3.9774288209852124 C 5.116883589220111 -3.9393297924584423 5.085998230476455 -3.9084444337147857 5.047899201949685 -3.9084444337147857 L 4.486406598231399 -3.9084444337147857 C 4.44830756970463 -3.9084444337147857 4.417422210960973 -3.9393297924584423 4.417422210960973 -3.9774288209852124 L 4.417422210960973 -3.977464179461517 C 4.417422210960973 -4.015563207988287 4.44830756970463 -4.046448566731944 4.486406598231399 -4.046448566731944 Z" fill="#382d5e" transform="matrix(1,0,0,1,0,0)" fill-rule="nonzero"></path></g><g clip-path="url(#SvgjsClipPath10005098b7b2-eeec-4321-9b21-00667db182ae)"><path d=" M 5.196546236334551 -3.062492888125366 L 6.1571299621037365 -3.062492888125366 C 6.205617859506079 -3.062492888125366 6.244925058768252 -3.023185688863193 6.244925058768252 -2.9746977914608506 L 6.244925058768252 -2.974662432984546 C 6.244925058768252 -2.9261745355822035 6.205617859506079 -2.8868673363200306 6.1571299621037365 -2.8868673363200306 L 5.196546236334551 -2.8868673363200306 C 5.148058338932208 -2.8868673363200306 5.108751139670036 -2.9261745355822035 5.108751139670036 -2.974662432984546 L 5.108751139670036 -2.9746977914608506 C 5.108751139670036 -3.023185688863193 5.148058338932208 -3.062492888125366 5.196546236334551 -3.062492888125366 Z" fill="#382d5e" transform="matrix(1,0,0,1,0,0)" fill-rule="nonzero"></path></g><g clip-path="url(#SvgjsClipPath10005098b7b2-eeec-4321-9b21-00667db182ae)"><path d=" M 6.789834537099644 -2.345741214953238 L 6.789834537099644 -2.711878237088177 C 6.789834537099644 -2.7524573151397553 6.822730372809187 -2.785353150849298 6.863309450860765 -2.785353150849298 L 6.863309450860766 -2.785353150849298 C 6.9038885289123435 -2.785353150849298 6.936784364621886 -2.7524573151397553 6.936784364621886 -2.711878237088177 L 6.936784364621886 -2.345741214953238 C 6.936784364621886 -2.30516213690166 6.9038885289123435 -2.272266301192117 6.863309450860766 -2.272266301192117 L 6.863309450860765 -2.272266301192117 C 6.822730372809187 -2.272266301192117 6.789834537099644 -2.30516213690166 6.789834537099644 -2.345741214953238 Z" fill="#382d5e" transform="matrix(1,0,0,1,0,0)" fill-rule="nonzero"></path></g><g clip-path="url(#SvgjsClipPath10005098b7b2-eeec-4321-9b21-00667db182ae)"><path d=" M 5.529905950935055 -1.7518956054161734 C 5.529905950935055 -1.7020993354298772 5.489538106344423 -1.6617314908392449 5.4397418363581265 -1.6617314908392449 C 5.389945566371831 -1.6617314908392449 5.349577721781198 -1.7020993354298772 5.349577721781198 -1.7518956054161734 C 5.349577721781198 -1.8016918754024696 5.389945566371831 -1.842059719993102 5.4397418363581265 -1.842059719993102 C 5.489538106344423 -1.842059719993102 5.529905950935055 -1.8016918754024696 5.529905950935055 -1.7518956054161734 Z" fill="#382d5e" transform="matrix(1,0,0,1,0,0)" fill-rule="nonzero"></path></g><g clip-path="url(#SvgjsClipPath10005098b7b2-eeec-4321-9b21-00667db182ae)"><path d=" M 7.036000249132811 -1.64196610258493 C 7.036000249132811 -1.6071868253905794 7.007806080028531 -1.5789926562862986 6.97302680283418 -1.5789926562862986 C 6.938247525639831 -1.5789926562862986 6.910053356535549 -1.6071868253905794 6.910053356535549 -1.64196610258493 C 6.910053356535549 -1.6767453797792804 6.938247525639831 -1.7049395488835613 6.97302680283418 -1.7049395488835613 C 7.007806080028531 -1.7049395488835613 7.036000249132811 -1.6767453797792804 7.036000249132811 -1.64196610258493 Z" fill="#382d5e" transform="matrix(1,0,0,1,0,0)" fill-rule="nonzero"></path></g><g clip-path="url(#SvgjsClipPath10005098b7b2-eeec-4321-9b21-00667db182ae)"><path d=" M 7.137726585461371 -2.407583190010121 L 6.180678707322653 -2.407583190010121 L 6.10840598175589 -2.9285196214069416 L 5.958733551558189 -2.991386992276659 L 5.492991701672971 -2.9746977914608506 L 5.349577721781198 -2.9002328403631994 L 5.208391325896619 -2.409492547730574 C 5.027179134835144 -2.34574121495324 4.880229307312903 -2.2092221379408787 4.8026881687767435 -2.0349755667114255 C 4.79540432265798 -2.01860459218236 4.800602018674768 -1.999369581072615 4.815169710912295 -1.9889388305627351 L 4.867606331272132 -1.9513881287271668 C 4.887230285621229 -1.9373154551579055 4.914880614091486 -1.9450943199449346 4.924215251835921 -1.9673701600168814 C 5.0085452178225776 -2.1689134749535457 5.207613439417915 -2.3105595310300853 5.439777194834431 -2.3105595310300853 C 5.74831525906905 -2.3105595310300853 5.9984411204483425 -2.0604336696507937 5.9984411204483425 -1.7518956054161738 C 5.9984411204483425 -1.7496680214089793 5.998370403495732 -1.7474404374017842 5.998370403495732 -1.7452128533945896 L 6.582244922714879 -1.7452128533945896 C 6.6278573571479145 -1.9184340288112072 6.7855561614667765 -2.046148845223704 6.973097519786789 -2.046148845223704 C 7.050143639654682 -2.046148845223704 7.122133497411006 -2.0245801746778502 7.183374378370708 -1.987206265223806 L 7.183374378370708 -2.2504501213121335 C 7.183374378370708 -2.260668720964185 7.204589464153515 -2.296027197268863 7.204589464153515 -2.331385673573541 C 7.204589464153515 -2.366744149878219 7.181005360458295 -2.4076185484864263 7.137797302413978 -2.4076185484864263 Z M 5.387411291427203 -2.4469018156609232 L 5.540124550587108 -2.9426983704051173 L 5.939286389590617 -2.9230390575797163 L 6.027293637112961 -2.3105595310300853 L 6.041437027634832 -2.159295969398673 C 6.041437027634832 -2.159295969398673 5.875464339860674 -2.327248731845893 5.844808540904519 -2.3502317414439338 C 5.814152741948363 -2.3732147510419748 5.729292398817135 -2.4502962293861725 5.729292398817135 -2.474587502607486 C 5.729292398817135 -2.5087791491941096 5.822391266927352 -2.535298006422618 5.822391266927352 -2.6189561613594865 C 5.822391266927352 -2.677297647262205 5.789967544155963 -2.726799514088754 5.712779990382851 -2.726799514088754 C 5.630288665164037 -2.726799514088754 5.6090735793812305 -2.654915731761344 5.6090735793812305 -2.627795780435656 C 5.6090735793812305 -2.5794607433271612 5.633824512794505 -2.5482392087501307 5.633824512794505 -2.543536531401608 C 5.633824512794505 -2.538833854053086 5.543377530407139 -2.522639671905544 5.496916492542792 -2.4465128724215717 C 5.478070424672398 -2.4480332869026724 5.458976847467872 -2.44884653185768 5.439741836358127 -2.44884653185768 C 5.422133315158398 -2.44884653185768 5.404666227863887 -2.4481747208078914 5.387411291427204 -2.4469018156609232 Z M 6.879821859295049 -2.1342621681749603 C 6.879821859295049 -2.12662473729315 6.873634125941731 -2.120401645463527 6.865961336583616 -2.120401645463527 L 6.467966327298161 -2.120401645463527 C 6.4603288964163506 -2.120401645463527 6.454105804586727 -2.1265893788168455 6.454105804586727 -2.1342621681749603 L 6.454105804586727 -2.162548949218703 C 6.454105804586727 -2.170186380100513 6.4602935379400455 -2.176409471930137 6.467966327298161 -2.176409471930137 L 6.865961336583616 -2.176409471930137 C 6.873598767465427 -2.176409471930137 6.879821859295049 -2.170221738576818 6.879821859295049 -2.162548949218703 L 6.879821859295049 -2.1342621681749603 Z" fill="#382d5e" transform="matrix(1,0,0,1,0,0)" fill-rule="nonzero"></path></g><g clip-path="url(#SvgjsClipPath10005098b7b2-eeec-4321-9b21-00667db182ae)"><path d=" M 5.8094854230761435 -1.4334571678162442 C 5.883172487695092 -1.5189186050446506 5.927724167838987 -1.630191729975472 5.927724167838987 -1.7518956054161738 C 5.927724167838987 -2.0213979118104293 5.7092795012286865 -2.2398425784207294 5.439777194834432 -2.2398425784207294 C 5.170274888440176 -2.2398425784207294 4.9518302218298755 -2.0213979118104293 4.9518302218298755 -1.7518956054161738 C 4.9518302218298755 -1.630227088451777 4.99638190197377 -1.518918605044651 5.070068966592719 -1.4334571678162447 L 5.809520781552449 -1.4334571678162447 Z M 5.4397418363581265 -2.0182510074193125 C 5.586868456261891 -2.0182510074193125 5.706097238361266 -1.8989868668436336 5.706097238361266 -1.7518956054161734 C 5.706097238361266 -1.6048043439887132 5.586833097785586 -1.4855402034130343 5.4397418363581265 -1.4855402034130343 C 5.292650574930666 -1.4855402034130343 5.173386434354988 -1.6048043439887132 5.173386434354988 -1.7518956054161734 C 5.173386434354988 -1.8989868668436336 5.292650574930666 -2.0182510074193125 5.4397418363581265 -2.0182510074193125 Z" fill="#382d5e" transform="matrix(1,0,0,1,0,0)" fill-rule="nonzero"></path></g><g clip-path="url(#SvgjsClipPath10005098b7b2-eeec-4321-9b21-00667db182ae)"><path d=" M 7.2472317865769575 -1.4440647107076474 C 7.287469732611681 -1.4997189524112104 7.31119527021212 -1.5680668871081531 7.31119527021212 -1.64196610258493 C 7.31119527021212 -1.828729574426239 7.159790274675489 -1.9801345699628699 6.9730268028341795 -1.9801345699628699 C 6.78626333099287 -1.9801345699628699 6.634858335456239 -1.8287295744262386 6.634858335456239 -1.64196610258493 C 6.634858335456239 -1.5680668871081531 6.658583873056679 -1.4996835939349058 6.6988218190914015 -1.4440647107076474 L 7.247231786576957 -1.4440647107076474 Z M 6.97302680283418 -1.7900120428726165 C 7.054775600050595 -1.7900120428726165 7.121037384645561 -1.7237502582776498 7.121037384645561 -1.6420014610612346 C 7.121037384645561 -1.5602526638448193 7.054775600050595 -1.4939908792498526 6.97302680283418 -1.4939908792498526 C 6.891278005617766 -1.4939908792498526 6.825016221022799 -1.5602526638448193 6.825016221022799 -1.6420014610612346 C 6.825016221022799 -1.7237502582776498 6.891278005617766 -1.7900120428726165 6.97302680283418 -1.7900120428726165 Z" fill="#382d5e" transform="matrix(1,0,0,1,0,0)" fill-rule="nonzero"></path></g></g><g><path d=" M 0.7117435913085943 0.2922363281250002 L 0.5857670288085943 0.017578125000000222 L 1.0318119506835943 0.017578125000000222 L 1.5650150756835943 1.1066894531250002 L 1.0867435913085943 1.1066894531250002 L 1.0061771850585943 0.9323730468750002 L 0.5769779663085943 0.9323730468750002 L 0.4971439819335943 1.1066894531250002 L 0.3118412475585943 1.1066894531250002 L 0.7117435913085943 0.2922363281250002 M 0.9292728881835943 0.7646484375000002 L 0.7915775756835943 0.4658203125000002 L 0.6546146850585943 0.7646484375000002 L 0.9292728881835943 0.7646484375000002 M 1.6507084350585943 0.5625000000000002 Q 1.6507084350585943 0.4848632812500002 1.6708500366210943 0.4127197265625002 Q 1.6909916381835943 0.3405761718750002 1.7298099975585943 0.2783203125000002 Q 1.7686283569335943 0.21606445312500022 1.8250248413085943 0.16479492187500022 Q 1.8814213256835943 0.11352539062500022 1.9535648803710943 0.07690429687500022 Q 2.0257084350585943 0.04028320312500022 2.1128666381835943 0.020141601562500222 Q 2.2000248413085943 2.220446049250313e-16 2.3003666381835943 2.220446049250313e-16 Q 2.3648197631835943 2.220446049250313e-16 2.4237797241210943 0.008056640625000222 Q 2.4827396850585943 0.016113281250000222 2.5347416381835943 0.030395507812500222 Q 2.5867435913085943 0.04467773437500022 2.6310551147460943 0.06335449218750022 Q 2.6753666381835943 0.08203125000000022 2.7112553100585943 0.10253906250000022 L 2.6482670288085943 0.22558593750000022 Q 2.6072514038085943 0.20581054687500022 2.5548832397460943 0.19226074218750022 Q 2.5025150756835943 0.17871093750000022 2.4461185913085943 0.17871093750000022 Q 2.3706791381835943 0.17871093750000022 2.3062260131835943 0.20581054687500022 Q 2.2417728881835943 0.23291015625000022 2.1948978881835943 0.2827148437500002 Q 2.1480228881835943 0.3325195312500002 2.1212894897460943 0.4031982421875002 Q 2.0945560913085943 0.4738769531250002 2.0945560913085943 0.5617675781250002 Q 2.0945560913085943 0.6489257812500002 2.1209232788085943 0.7196044921875002 Q 2.1472904663085943 0.7902832031250002 2.1937992553710943 0.8404541015625002 Q 2.2403080444335943 0.8906250000000002 2.3043949584960943 0.9180908203125002 Q 2.3684818725585943 0.9455566406250002 2.4431889038085943 0.9455566406250002 L 2.4431889038085943 0.5771484375000002 L 2.8701908569335943 0.5771484375000002 L 2.7940189819335943 0.7155761718750002 L 2.7940189819335943 1.0114746093750002 L 2.7947514038085943 1.0129394531250002 Q 2.7588627319335943 1.0341796875000002 2.7061283569335943 1.0539550781250002 Q 2.6533939819335943 1.0737304687500002 2.5885746459960943 1.0894775390625002 Q 2.5237553100585943 1.1052246093750002 2.4505131225585943 1.1147460937500002 Q 2.3772709350585943 1.1242675781250002 2.3003666381835943 1.1242675781250002 Q 2.1502201538085943 1.1242675781250002 2.0297367553710943 1.0799560546875002 Q 1.9092533569335943 1.0356445312500002 1.8250248413085943 0.9591064453125002 Q 1.7407963256835943 0.8825683593750002 1.6957523803710943 0.7803955078125002 Q 1.6507084350585943 0.6782226562500002 1.6507084350585943 0.5625000000000002 M 3.0335209350585943 0.017578125000000222 L 3.6612064819335943 0.017578125000000222 Q 3.7827885131835943 0.017578125000000222 3.8739750366210943 0.04321289062500022 Q 3.9651615600585943 0.06884765625000022 4.026318786621094 0.11499023437500022 Q 4.087476013183594 0.16113281250000022 4.118237731933594 0.22558593750000022 Q 4.148999450683594 0.2900390625000002 4.148999450683594 0.3676757812500002 Q 4.148999450683594 0.4636230468750002 4.103589294433594 0.5379638671875002 Q 4.058179138183594 0.6123046875000002 3.9688236694335943 0.6562500000000002 L 4.197339294433594 1.1066894531250002 L 3.7190678100585943 1.1066894531250002 L 3.5462162475585943 0.7111816406250002 L 3.4568607788085943 0.7111816406250002 L 3.4568607788085943 1.1059570312500002 L 3.0335209350585943 1.1059570312500002 L 3.0335209350585943 0.017578125000000222 M 3.4824955444335943 0.5786132812500002 Q 3.5344974975585943 0.5786132812500002 3.5755131225585943 0.5639648437500002 Q 3.6165287475585943 0.5493164062500002 3.6450932006835943 0.5225830078125002 Q 3.6736576538085943 0.4958496093750002 3.6890385131835943 0.4588623046875002 Q 3.7044193725585943 0.4218750000000002 3.7044193725585943 0.3779296875000002 Q 3.7044193725585943 0.3339843750000002 3.6890385131835943 0.2969970703125002 Q 3.6736576538085943 0.2600097656250002 3.6450932006835943 0.23327636718750022 Q 3.6165287475585943 0.20654296875000022 3.5755131225585943 0.19189453125000022 Q 3.5344974975585943 0.17724609375000022 3.4824955444335943 0.17724609375000022 L 3.4575932006835943 0.17724609375000022 L 3.4568607788085943 0.5786132812500002 L 3.4824955444335943 0.5786132812500002 M 4.335767028808594 0.5595703125000002 Q 4.335767028808594 0.4357910156250002 4.375317810058594 0.3328857421875002 Q 4.414868591308594 0.22998046875000022 4.493237731933594 0.15600585937500022 Q 4.571606872558594 0.08203125000000022 4.688794372558594 0.04101562500000022 Q 4.805981872558594 2.220446049250313e-16 4.961255310058594 2.220446049250313e-16 Q 5.116528747558594 2.220446049250313e-16 5.233716247558594 0.04101562500000022 Q 5.350903747558594 0.08203125000000022 5.429272888183594 0.15600585937500022 Q 5.507642028808594 0.22998046875000022 5.547192810058594 0.3328857421875002 Q 5.586743591308594 0.4357910156250002 5.586743591308594 0.5595703125000002 Q 5.586743591308594 0.6848144531250002 5.547192810058594 0.7888183593750002 Q 5.507642028808594 0.8928222656250002 5.429272888183594 0.9667968750000002 Q 5.350903747558594 1.0407714843750002 5.233716247558594 1.0817871093750002 Q 5.116528747558594 1.1228027343750002 4.961255310058594 1.1228027343750002 Q 4.805981872558594 1.1228027343750002 4.688794372558594 1.0817871093750002 Q 4.571606872558594 1.0407714843750002 4.493237731933594 0.9667968750000002 Q 4.414868591308594 0.8928222656250002 4.375317810058594 0.7888183593750002 Q 4.335767028808594 0.6848144531250002 4.335767028808594 0.5595703125000002 M 4.961255310058594 0.9711914062500002 Q 5.005200622558594 0.9711914062500002 5.038892028808594 0.9558105468750002 Q 5.072583435058594 0.9404296875000002 5.095288513183594 0.8957519531250002 Q 5.117993591308594 0.8510742187500002 5.129712341308594 0.7705078125000002 Q 5.141431091308594 0.6899414062500002 5.141431091308594 0.5595703125000002 Q 5.141431091308594 0.4306640625000002 5.129712341308594 0.3508300781250002 Q 5.117993591308594 0.2709960937500002 5.095288513183594 0.22705078125000022 Q 5.072583435058594 0.18310546875000022 5.038892028808594 0.16772460937500022 Q 5.005200622558594 0.15234375000000022 4.961255310058594 0.15234375000000022 Q 4.917309997558594 0.15234375000000022 4.883252380371094 0.16772460937500022 Q 4.849194763183594 0.18310546875000022 4.826489685058594 0.22705078125000022 Q 4.803784606933594 0.2709960937500002 4.792065856933594 0.3508300781250002 Q 4.780347106933594 0.4306640625000002 4.780347106933594 0.5595703125000002 Q 4.780347106933594 0.6899414062500002 4.792065856933594 0.7705078125000002 Q 4.803784606933594 0.8510742187500002 4.826489685058594 0.8957519531250002 Q 4.849194763183594 0.9404296875000002 4.883252380371094 0.9558105468750002 Q 4.917309997558594 0.9711914062500002 4.961255310058594 0.9711914062500002 M 5.801343200683594 0.017578125000000222 L 6.100903747558594 0.017578125000000222 L 6.512524841308594 0.5874023437500002 L 6.903638122558594 0.017578125000000222 L 7.195142028808594 0.017578125000000222 L 7.195142028808594 1.1059570312500002 L 6.772534606933594 1.1059570312500002 L 6.772534606933594 0.5500488281250002 L 6.366772888183594 1.1198730468750002 L 5.962476013183594 0.5500488281250002 L 5.962476013183594 1.1059570312500002 L 5.801343200683594 1.1059570312500002 L 5.801343200683594 0.017578125000000222 M 7.473462341308594 0.017578125000000222 L 7.897534606933594 0.017578125000000222 L 7.896802185058594 1.1059570312500002 L 7.473462341308594 1.1059570312500002 L 7.473462341308594 0.017578125000000222 M 8.367017028808593 0.18457031250000022 L 8.056470153808593 0.18457031250000022 L 8.056470153808593 0.016845703125000222 L 9.100903747558593 0.016845703125000222 L 9.100903747558593 0.18457031250000022 L 8.790356872558593 0.18457031250000022 L 8.790356872558593 1.1059570312500002 L 8.367017028808593 1.1059570312500002 L 8.367017028808593 0.18457031250000022 M 9.259839294433593 0.017578125000000222 L 9.887524841308593 0.017578125000000222 Q 10.009106872558593 0.017578125000000222 10.100293395996093 0.04321289062500022 Q 10.191479919433593 0.06884765625000022 10.252637145996093 0.11499023437500022 Q 10.313794372558593 0.16113281250000022 10.344556091308593 0.22558593750000022 Q 10.375317810058593 0.2900390625000002 10.375317810058593 0.3676757812500002 Q 10.375317810058593 0.4636230468750002 10.329907653808593 0.5379638671875002 Q 10.284497497558593 0.6123046875000002 10.195142028808593 0.6562500000000002 L 10.423657653808593 1.1066894531250002 L 9.945386169433593 1.1066894531250002 L 9.772534606933593 0.7111816406250002 L 9.683179138183593 0.7111816406250002 L 9.683179138183593 1.1059570312500002 L 9.259839294433593 1.1059570312500002 L 9.259839294433593 0.017578125000000222 M 9.708813903808593 0.5786132812500002 Q 9.760815856933593 0.5786132812500002 9.801831481933593 0.5639648437500002 Q 9.842847106933593 0.5493164062500002 9.871411560058593 0.5225830078125002 Q 9.899976013183593 0.4958496093750002 9.915356872558593 0.4588623046875002 Q 9.930737731933593 0.4218750000000002 9.930737731933593 0.3779296875000002 Q 9.930737731933593 0.3339843750000002 9.915356872558593 0.2969970703125002 Q 9.899976013183593 0.2600097656250002 9.871411560058593 0.23327636718750022 Q 9.842847106933593 0.20654296875000022 9.801831481933593 0.19189453125000022 Q 9.760815856933593 0.17724609375000022 9.708813903808593 0.17724609375000022 L 9.683911560058593 0.17724609375000022 L 9.683179138183593 0.5786132812500002 L 9.708813903808593 0.5786132812500002 M 10.926831481933593 0.2922363281250002 L 10.800854919433593 0.017578125000000222 L 11.246899841308593 0.017578125000000222 L 11.780102966308593 1.1066894531250002 L 11.301831481933593 1.1066894531250002 L 11.221265075683593 0.9323730468750002 L 10.792065856933593 0.9323730468750002 L 10.712231872558593 1.1066894531250002 L 10.526929138183593 1.1066894531250002 L 10.926831481933593 0.2922363281250002 M 11.144360778808593 0.7646484375000002 L 11.006665466308593 0.4658203125000002 L 10.869702575683593 0.7646484375000002 L 11.144360778808593 0.7646484375000002" fill="#382d5e" fill-rule="nonzero"></path></g><g><path d=" M 0.5385 2.00324560546875 L 0.5385 1.56974560546875 L 0.34575 1.9064956054687499 L 0.31275000000000003 1.9064956054687499 L 0.11925000000000001 1.56974560546875 L 0.11925000000000001 2.00324560546875 L 0.06675 2.00324560546875 L 0.06675 1.47074560546875 L 0.12075 1.47074560546875 L 0.3285 1.83524560546875 L 0.5377500000000001 1.47074560546875 L 0.591 1.47074560546875 L 0.591 2.00324560546875 L 0.5385 2.00324560546875 M 0.8906356201171877 1.47074560546875 L 0.9348856201171877 1.47074560546875 L 1.1561356201171877 2.00324560546875 L 1.1006356201171876 2.00324560546875 L 1.0316356201171877 1.8367456054687499 L 0.7923856201171877 1.8367456054687499 L 0.7241356201171877 2.00324560546875 L 0.6678856201171877 2.00324560546875 L 0.8906356201171877 1.47074560546875 M 1.0196356201171877 1.7954956054687499 L 0.9123856201171876 1.5322456054687499 L 0.8036356201171877 1.7954956054687499 L 1.0196356201171877 1.7954956054687499 M 1.2337796630859377 2.00324560546875 L 1.2337796630859377 1.4714956054687498 L 1.2862796630859377 1.4714956054687498 L 1.2862796630859377 1.78049560546875 L 1.5795296630859377 1.47074560546875 L 1.6372796630859376 1.47074560546875 L 1.4197796630859376 1.70474560546875 L 1.6485296630859376 2.00324560546875 L 1.5892796630859376 2.00324560546875 L 1.3860296630859377 1.73624560546875 L 1.2862796630859377 1.83974560546875 L 1.2862796630859377 2.00324560546875 L 1.2337796630859377 2.00324560546875 M 1.7171586914062502 2.00324560546875 L 1.7171586914062502 1.47074560546875 L 1.7696586914062502 1.47074560546875 L 1.7696586914062502 2.00324560546875 L 1.7171586914062502 2.00324560546875 M 1.9567730712890627 1.5674956054687499 L 1.9567730712890627 2.00324560546875 L 1.9042730712890628 2.00324560546875 L 1.9042730712890628 1.47074560546875 L 1.9477730712890626 1.47074560546875 L 2.2972730712890628 1.91474560546875 L 2.2972730712890628 1.4714956054687498 L 2.3497730712890625 1.4714956054687498 L 2.3497730712890625 2.00324560546875 L 2.3010230712890625 2.00324560546875 L 1.9567730712890627 1.5674956054687499 M 2.6981275634765627 2.00699560546875 Q 2.644877563476563 2.00699560546875 2.5991275634765625 1.98412060546875 Q 2.5533775634765625 1.96124560546875 2.5196275634765626 1.92224560546875 Q 2.4858775634765626 1.8832456054687499 2.467502563476563 1.83524560546875 Q 2.4491275634765626 1.78724560546875 2.4491275634765626 1.73624560546875 Q 2.4491275634765626 1.68224560546875 2.467502563476563 1.63387060546875 Q 2.4858775634765626 1.58549560546875 2.5188775634765626 1.54799560546875 Q 2.551877563476563 1.51049560546875 2.596877563476563 1.48874560546875 Q 2.6418775634765628 1.46699560546875 2.6951275634765626 1.46699560546875 Q 2.773877563476563 1.46699560546875 2.8233775634765625 1.49924560546875 Q 2.8728775634765626 1.5314956054687499 2.8983775634765627 1.58324560546875 L 2.8578775634765625 1.61024560546875 Q 2.832377563476563 1.56074560546875 2.7896275634765626 1.53749560546875 Q 2.7468775634765628 1.51424560546875 2.6943775634765625 1.51424560546875 Q 2.6501275634765626 1.51424560546875 2.6145025634765626 1.53299560546875 Q 2.5788775634765626 1.55174560546875 2.5533775634765625 1.58324560546875 Q 2.527877563476563 1.61474560546875 2.514752563476563 1.65449560546875 Q 2.501627563476563 1.69424560546875 2.501627563476563 1.73699560546875 Q 2.501627563476563 1.78199560546875 2.516627563476563 1.82212060546875 Q 2.5316275634765626 1.86224560546875 2.5593775634765628 1.89337060546875 Q 2.587127563476563 1.9244956054687499 2.6235025634765625 1.9421206054687499 Q 2.6598775634765626 1.9597456054687499 2.701877563476563 1.9597456054687499 Q 2.750627563476563 1.9597456054687499 2.7941275634765628 1.93537060546875 Q 2.8376275634765626 1.91099560546875 2.877377563476563 1.8599956054687499 L 2.877377563476563 1.91549560546875 Q 2.8016275634765626 2.00699560546875 2.6981275634765627 2.00699560546875 M 2.869127563476563 1.78199560546875 L 2.750627563476563 1.78199560546875 L 2.750627563476563 1.74149560546875 L 2.913377563476563 1.74149560546875 L 2.913377563476563 2.00324560546875 L 2.869127563476563 2.00324560546875 L 2.869127563476563 1.78199560546875 M 3.2148837890625 2.00324560546875 L 3.2148837890625 1.47074560546875 L 3.2673837890625004 1.47074560546875 L 3.2673837890625004 1.95674560546875 L 3.5748837890625005 1.95674560546875 L 3.5748837890625005 2.00324560546875 L 3.2148837890625 2.00324560546875 M 3.6532646484375 2.00324560546875 L 3.6532646484375 1.47074560546875 L 3.7057646484375004 1.47074560546875 L 3.7057646484375004 2.00324560546875 L 3.6532646484375 2.00324560546875 M 3.8403790283203127 2.00324560546875 L 3.8403790283203127 1.47074560546875 L 4.189879028320313 1.47074560546875 L 4.189879028320313 1.51724560546875 L 3.892879028320313 1.51724560546875 L 3.892879028320313 1.71299560546875 L 4.143379028320313 1.71299560546875 L 4.143379028320313 1.75649560546875 L 3.892879028320313 1.75649560546875 L 3.892879028320313 2.00324560546875 L 3.8403790283203127 2.00324560546875 M 4.640995971679688 1.95674560546875 L 4.640995971679688 2.00324560546875 L 4.283245971679688 2.00324560546875 L 4.283245971679688 1.47074560546875 L 4.634245971679688 1.47074560546875 L 4.634245971679688 1.51724560546875 L 4.335745971679688 1.51724560546875 L 4.335745971679688 1.70924560546875 L 4.595995971679688 1.70924560546875 L 4.595995971679688 1.75349560546875 L 4.335745971679688 1.75349560546875 L 4.335745971679688 1.95674560546875 L 4.640995971679688 1.95674560546875 M 5.291256225585938 1.95674560546875 L 5.291256225585938 2.00324560546875 L 4.933506225585938 2.00324560546875 L 4.933506225585938 1.47074560546875 L 5.284506225585938 1.47074560546875 L 5.284506225585938 1.51724560546875 L 4.986006225585938 1.51724560546875 L 4.986006225585938 1.70924560546875 L 5.246256225585938 1.70924560546875 L 5.246256225585938 1.75349560546875 L 4.986006225585938 1.75349560546875 L 4.986006225585938 1.95674560546875 L 5.291256225585938 1.95674560546875 M 5.556387817382813 1.47074560546875 L 5.600637817382813 1.47074560546875 L 5.821887817382813 2.00324560546875 L 5.766387817382813 2.00324560546875 L 5.697387817382813 1.8367456054687499 L 5.458137817382813 1.8367456054687499 L 5.389887817382813 2.00324560546875 L 5.333637817382813 2.00324560546875 L 5.556387817382813 1.47074560546875 M 5.685387817382813 1.7954956054687499 L 5.578137817382813 1.5322456054687499 L 5.469387817382813 1.7954956054687499 L 5.685387817382813 1.7954956054687499 M 6.203274536132813 1.57049560546875 Q 6.192024536132813 1.55774560546875 6.177024536132813 1.54762060546875 Q 6.162024536132813 1.53749560546875 6.143274536132813 1.52999560546875 Q 6.124524536132813 1.52249560546875 6.103149536132813 1.51799560546875 Q 6.081774536132813 1.51349560546875 6.057774536132813 1.51349560546875 Q 5.988024536132813 1.51349560546875 5.955399536132813 1.54012060546875 Q 5.922774536132813 1.5667456054687499 5.922774536132813 1.61249560546875 Q 5.922774536132813 1.64399560546875 5.938149536132813 1.66199560546875 Q 5.9535245361328135 1.67999560546875 5.986524536132813 1.69124560546875 Q 6.019524536132813 1.70249560546875 6.0705245361328135 1.71449560546875 Q 6.127524536132813 1.72649560546875 6.168774536132813 1.7429956054687499 Q 6.2100245361328135 1.75949560546875 6.232524536132813 1.78762060546875 Q 6.255024536132813 1.81574560546875 6.255024536132813 1.86374560546875 Q 6.255024536132813 1.90049560546875 6.240774536132813 1.92749560546875 Q 6.226524536132813 1.95449560546875 6.201024536132813 1.97249560546875 Q 6.175524536132813 1.99049560546875 6.1402745361328135 1.99912060546875 Q 6.105024536132813 2.00774560546875 6.063024536132813 2.00774560546875 Q 6.021774536132813 2.00774560546875 5.983899536132813 1.99912060546875 Q 5.946024536132813 1.99049560546875 5.912274536132813 1.97362060546875 Q 5.878524536132813 1.95674560546875 5.849274536132813 1.9304956054687499 L 5.875524536132813 1.88774560546875 Q 5.889774536132813 1.90274560546875 5.909649536132813 1.91587060546875 Q 5.9295245361328135 1.92899560546875 5.953899536132813 1.93949560546875 Q 5.978274536132813 1.94999560546875 6.006399536132813 1.95562060546875 Q 6.034524536132813 1.96124560546875 6.064524536132813 1.96124560546875 Q 6.128274536132813 1.96124560546875 6.1638995361328135 1.93799560546875 Q 6.199524536132813 1.91474560546875 6.199524536132813 1.86899560546875 Q 6.199524536132813 1.8359956054687498 6.181524536132813 1.81612060546875 Q 6.1635245361328135 1.79624560546875 6.127524536132813 1.78349560546875 Q 6.091524536132813 1.77074560546875 6.039024536132813 1.75874560546875 Q 5.983524536132813 1.74599560546875 5.945274536132813 1.7302456054687498 Q 5.9070245361328135 1.71449560546875 5.887899536132813 1.68862060546875 Q 5.868774536132813 1.66274560546875 5.868774536132813 1.6199956054687499 Q 5.868774536132813 1.57049560546875 5.893149536132813 1.53637060546875 Q 5.917524536132813 1.50224560546875 5.960274536132813 1.4846206054687499 Q 6.003024536132813 1.46699560546875 6.058524536132813 1.46699560546875 Q 6.0937745361328135 1.46699560546875 6.124149536132813 1.47412060546875 Q 6.154524536132813 1.48124560546875 6.180399536132813 1.4947456054687498 Q 6.206274536132813 1.5082456054687499 6.228774536132813 1.52849560546875 L 6.203274536132813 1.57049560546875 M 6.338623901367188 1.47074560546875 L 6.5126239013671885 1.75724560546875 L 6.688123901367188 1.47074560546875 L 6.745123901367188 1.47074560546875 L 6.538873901367188 1.80524560546875 L 6.538873901367188 2.00324560546875 L 6.486373901367188 2.00324560546875 L 6.486373901367188 1.80374560546875 L 6.280873901367188 1.47074560546875 L 6.338623901367188 1.47074560546875 M 6.990370239257813 2.00324560546875 L 6.990370239257813 1.47074560546875 L 7.339870239257813 1.47074560546875 L 7.339870239257813 1.51724560546875 L 7.042870239257813 1.51724560546875 L 7.042870239257813 1.71299560546875 L 7.293370239257813 1.71299560546875 L 7.293370239257813 1.75649560546875 L 7.042870239257813 1.75649560546875 L 7.042870239257813 2.00324560546875 L 6.990370239257813 2.00324560546875 M 7.637254394531251 2.00699560546875 Q 7.58100439453125 2.00699560546875 7.5352543945312505 1.98449560546875 Q 7.4895043945312505 1.96199560546875 7.456504394531251 1.92337060546875 Q 7.423504394531251 1.88474560546875 7.405504394531251 1.8363706054687499 Q 7.387504394531251 1.78799560546875 7.387504394531251 1.73699560546875 Q 7.387504394531251 1.6837456054687499 7.406254394531251 1.63537060546875 Q 7.425004394531251 1.58699560546875 7.459129394531251 1.54912060546875 Q 7.493254394531251 1.51124560546875 7.539004394531251 1.48912060546875 Q 7.5847543945312506 1.46699560546875 7.638004394531251 1.46699560546875 Q 7.694254394531251 1.46699560546875 7.740004394531251 1.49024560546875 Q 7.785754394531251 1.51349560546875 7.8183793945312505 1.55249560546875 Q 7.851004394531251 1.59149560546875 7.869004394531251 1.63949560546875 Q 7.8870043945312505 1.68749560546875 7.8870043945312505 1.73774560546875 Q 7.8870043945312505 1.79099560546875 7.868254394531251 1.83937060546875 Q 7.849504394531251 1.88774560546875 7.81575439453125 1.92562060546875 Q 7.782004394531251 1.96349560546875 7.736254394531251 1.98524560546875 Q 7.690504394531251 2.00699560546875 7.637254394531251 2.00699560546875 M 7.44000439453125 1.73699560546875 Q 7.44000439453125 1.78049560546875 7.454254394531251 1.82062060546875 Q 7.468504394531251 1.86074560546875 7.494754394531251 1.89187060546875 Q 7.521004394531251 1.92299560546875 7.55737939453125 1.94137060546875 Q 7.593754394531251 1.9597456054687499 7.637254394531251 1.9597456054687499 Q 7.683004394531251 1.9597456054687499 7.71937939453125 1.94062060546875 Q 7.755754394531251 1.92149560546875 7.781629394531251 1.8896206054687499 Q 7.807504394531251 1.85774560546875 7.821004394531251 1.81799560546875 Q 7.834504394531251 1.7782456054687499 7.834504394531251 1.73699560546875 Q 7.834504394531251 1.69349560546875 7.820254394531251 1.65374560546875 Q 7.806004394531251 1.6139956054687499 7.779379394531251 1.58249560546875 Q 7.752754394531251 1.55099560546875 7.716754394531251 1.53299560546875 Q 7.680754394531251 1.51499560546875 7.637254394531251 1.51499560546875 Q 7.592254394531251 1.51499560546875 7.55587939453125 1.53374560546875 Q 7.519504394531251 1.55249560546875 7.493629394531251 1.58437060546875 Q 7.467754394531251 1.61624560546875 7.453879394531251 1.65599560546875 Q 7.44000439453125 1.6957456054687499 7.44000439453125 1.73699560546875 M 7.987111816406251 2.00324560546875 L 7.987111816406251 1.47074560546875 L 8.212111816406251 1.47074560546875 Q 8.24661181640625 1.47074560546875 8.27511181640625 1.4849956054687499 Q 8.303611816406251 1.49924560546875 8.32498681640625 1.52362060546875 Q 8.346361816406251 1.54799560546875 8.357986816406251 1.5776206054687498 Q 8.36961181640625 1.60724560546875 8.36961181640625 1.63799560546875 Q 8.36961181640625 1.67624560546875 8.354986816406251 1.70999560546875 Q 8.34036181640625 1.74374560546875 8.313736816406252 1.76699560546875 Q 8.28711181640625 1.79024560546875 8.251111816406251 1.79774560546875 L 8.38161181640625 2.00324560546875 L 8.32236181640625 2.00324560546875 L 8.19711181640625 1.80674560546875 L 8.03961181640625 1.80674560546875 L 8.03961181640625 2.00324560546875 L 7.987111816406251 2.00324560546875 M 8.03961181640625 1.76024560546875 L 8.213611816406251 1.76024560546875 Q 8.24511181640625 1.76024560546875 8.268361816406252 1.7429956054687499 Q 8.29161181640625 1.7257456054687499 8.304361816406251 1.69762060546875 Q 8.317111816406252 1.66949560546875 8.317111816406252 1.63799560546875 Q 8.317111816406252 1.60574560546875 8.302486816406251 1.5783706054687499 Q 8.28786181640625 1.55099560546875 8.263486816406251 1.53412060546875 Q 8.23911181640625 1.51724560546875 8.209111816406251 1.51724560546875 L 8.03961181640625 1.51724560546875 L 8.03961181640625 1.76024560546875 M 8.67037683105469 2.00324560546875 L 8.67037683105469 1.47074560546875 L 9.019876831054688 1.47074560546875 L 9.019876831054688 1.51724560546875 L 8.722876831054688 1.51724560546875 L 8.722876831054688 1.71299560546875 L 8.973376831054688 1.71299560546875 L 8.973376831054688 1.75649560546875 L 8.722876831054688 1.75649560546875 L 8.722876831054688 2.00324560546875 L 8.67037683105469 2.00324560546875 M 9.231734985351563 1.47074560546875 L 9.275984985351563 1.47074560546875 L 9.497234985351563 2.00324560546875 L 9.441734985351564 2.00324560546875 L 9.372734985351563 1.8367456054687499 L 9.133484985351563 1.8367456054687499 L 9.065234985351564 2.00324560546875 L 9.008984985351564 2.00324560546875 L 9.231734985351563 1.47074560546875 M 9.360734985351563 1.7954956054687499 L 9.253484985351564 1.5322456054687499 L 9.144734985351564 1.7954956054687499 L 9.360734985351563 1.7954956054687499 M 9.574879028320314 2.00324560546875 L 9.574879028320314 1.47074560546875 L 9.799879028320314 1.47074560546875 Q 9.834379028320313 1.47074560546875 9.862879028320313 1.4849956054687499 Q 9.891379028320314 1.49924560546875 9.912754028320313 1.52362060546875 Q 9.934129028320314 1.54799560546875 9.945754028320314 1.5776206054687498 Q 9.957379028320313 1.60724560546875 9.957379028320313 1.63799560546875 Q 9.957379028320313 1.67624560546875 9.942754028320314 1.70999560546875 Q 9.928129028320313 1.74374560546875 9.901504028320314 1.76699560546875 Q 9.874879028320313 1.79024560546875 9.838879028320314 1.79774560546875 L 9.969379028320313 2.00324560546875 L 9.910129028320313 2.00324560546875 L 9.784879028320313 1.80674560546875 L 9.627379028320313 1.80674560546875 L 9.627379028320313 2.00324560546875 L 9.574879028320314 2.00324560546875 M 9.627379028320313 1.76024560546875 L 9.801379028320314 1.76024560546875 Q 9.832879028320313 1.76024560546875 9.856129028320314 1.7429956054687499 Q 9.879379028320313 1.7257456054687499 9.892129028320314 1.69762060546875 Q 9.904879028320314 1.66949560546875 9.904879028320314 1.63799560546875 Q 9.904879028320314 1.60574560546875 9.890254028320314 1.5783706054687499 Q 9.875629028320313 1.55099560546875 9.851254028320314 1.53412060546875 Q 9.826879028320313 1.51724560546875 9.796879028320314 1.51724560546875 L 9.627379028320313 1.51724560546875 L 9.627379028320313 1.76024560546875 M 10.537515380859375 2.00324560546875 L 10.537515380859375 1.56974560546875 L 10.344765380859377 1.9064956054687499 L 10.311765380859375 1.9064956054687499 L 10.118265380859375 1.56974560546875 L 10.118265380859375 2.00324560546875 L 10.065765380859377 2.00324560546875 L 10.065765380859377 1.47074560546875 L 10.119765380859375 1.47074560546875 L 10.327515380859376 1.83524560546875 L 10.536765380859377 1.47074560546875 L 10.590015380859375 1.47074560546875 L 10.590015380859375 2.00324560546875 L 10.537515380859375 2.00324560546875 M 11.082401000976564 1.95674560546875 L 11.082401000976564 2.00324560546875 L 10.724651000976564 2.00324560546875 L 10.724651000976564 1.47074560546875 L 11.075651000976563 1.47074560546875 L 11.075651000976563 1.51724560546875 L 10.777151000976563 1.51724560546875 L 10.777151000976563 1.70924560546875 L 11.037401000976564 1.70924560546875 L 11.037401000976564 1.75349560546875 L 10.777151000976563 1.75349560546875 L 10.777151000976563 1.95674560546875 L 11.082401000976564 1.95674560546875 M 11.18253259277344 2.00324560546875 L 11.18253259277344 1.47074560546875 L 11.407532592773439 1.47074560546875 Q 11.442032592773439 1.47074560546875 11.470532592773438 1.4849956054687499 Q 11.499032592773439 1.49924560546875 11.520407592773438 1.52362060546875 Q 11.541782592773439 1.54799560546875 11.55340759277344 1.5776206054687498 Q 11.565032592773438 1.60724560546875 11.565032592773438 1.63799560546875 Q 11.565032592773438 1.67624560546875 11.550407592773439 1.70999560546875 Q 11.535782592773439 1.74374560546875 11.50915759277344 1.76699560546875 Q 11.482532592773438 1.79024560546875 11.446532592773439 1.79774560546875 L 11.577032592773438 2.00324560546875 L 11.517782592773438 2.00324560546875 L 11.392532592773438 1.80674560546875 L 11.235032592773438 1.80674560546875 L 11.235032592773438 2.00324560546875 L 11.18253259277344 2.00324560546875 M 11.235032592773438 1.76024560546875 L 11.409032592773439 1.76024560546875 Q 11.440532592773438 1.76024560546875 11.46378259277344 1.7429956054687499 Q 11.487032592773438 1.7257456054687499 11.499782592773439 1.69762060546875 Q 11.51253259277344 1.66949560546875 11.51253259277344 1.63799560546875 Q 11.51253259277344 1.60574560546875 11.497907592773439 1.5783706054687499 Q 11.483282592773438 1.55099560546875 11.45890759277344 1.53412060546875 Q 11.434532592773438 1.51724560546875 11.404532592773439 1.51724560546875 L 11.235032592773438 1.51724560546875 L 11.235032592773438 1.76024560546875 M 11.984668945312501 1.57049560546875 Q 11.9734189453125 1.55774560546875 11.958418945312502 1.54762060546875 Q 11.943418945312501 1.53749560546875 11.9246689453125 1.52999560546875 Q 11.905918945312502 1.52249560546875 11.884543945312501 1.51799560546875 Q 11.863168945312502 1.51349560546875 11.839168945312501 1.51349560546875 Q 11.769418945312502 1.51349560546875 11.7367939453125 1.54012060546875 Q 11.704168945312501 1.5667456054687499 11.704168945312501 1.61249560546875 Q 11.704168945312501 1.64399560546875 11.719543945312502 1.66199560546875 Q 11.7349189453125 1.67999560546875 11.767918945312502 1.69124560546875 Q 11.800918945312501 1.70249560546875 11.851918945312502 1.71449560546875 Q 11.908918945312502 1.72649560546875 11.950168945312502 1.7429956054687499 Q 11.991418945312502 1.75949560546875 12.0139189453125 1.78762060546875 Q 12.036418945312501 1.81574560546875 12.036418945312501 1.86374560546875 Q 12.036418945312501 1.90049560546875 12.022168945312501 1.92749560546875 Q 12.0079189453125 1.95449560546875 11.982418945312501 1.97249560546875 Q 11.956918945312502 1.99049560546875 11.9216689453125 1.99912060546875 Q 11.886418945312501 2.00774560546875 11.844418945312501 2.00774560546875 Q 11.803168945312501 2.00774560546875 11.765293945312502 1.99912060546875 Q 11.7274189453125 1.99049560546875 11.693668945312501 1.97362060546875 Q 11.659918945312501 1.95674560546875 11.6306689453125 1.9304956054687499 L 11.656918945312501 1.88774560546875 Q 11.671168945312502 1.90274560546875 11.6910439453125 1.91587060546875 Q 11.710918945312502 1.92899560546875 11.7352939453125 1.93949560546875 Q 11.759668945312502 1.94999560546875 11.787793945312501 1.95562060546875 Q 11.815918945312502 1.96124560546875 11.845918945312501 1.96124560546875 Q 11.909668945312502 1.96124560546875 11.945293945312502 1.93799560546875 Q 11.980918945312501 1.91474560546875 11.980918945312501 1.86899560546875 Q 11.980918945312501 1.8359956054687498 11.9629189453125 1.81612060546875 Q 11.944918945312502 1.79624560546875 11.908918945312502 1.78349560546875 Q 11.8729189453125 1.77074560546875 11.8204189453125 1.75874560546875 Q 11.764918945312502 1.74599560546875 11.7266689453125 1.7302456054687498 Q 11.6884189453125 1.71449560546875 11.669293945312502 1.68862060546875 Q 11.650168945312501 1.66274560546875 11.650168945312501 1.6199956054687499 Q 11.650168945312501 1.57049560546875 11.674543945312502 1.53637060546875 Q 11.698918945312501 1.50224560546875 11.741668945312501 1.4846206054687499 Q 11.7844189453125 1.46699560546875 11.839918945312501 1.46699560546875 Q 11.8751689453125 1.46699560546875 11.905543945312502 1.47412060546875 Q 11.935918945312501 1.48124560546875 11.9617939453125 1.4947456054687498 Q 11.987668945312501 1.5082456054687499 12.0101689453125 1.52849560546875 L 11.984668945312501 1.57049560546875" fill="#c84449" fill-rule="nonzero"></path></g></g><defs><clipPath id="SvgjsClipPath1001"><path d=" M 1.043171255376758 -4.73287646997253 h 9.975572406238673 v 4.48287646997253 h -9.975572406238673 Z"></path></clipPath><clipPath id="SvgjsClipPath10005098b7b2-eeec-4321-9b21-00667db182ae"><path d=" M 1.043171255376758 -4.73287646997253 L 11.018743661615432 -4.73287646997253 L 11.018743661615432 -0.25 L 1.043171255376758 -0.25 Z"></path></clipPath></defs></svg>