<?xml version="1.0" standalone="no"?>
<svg viewBox="0 0 200 200" xmlns="http://www.w3.org/2000/svg">
  <path fill="#24A148" d="M37.7,-53.7C46.8,-52.9,50.4,-38.8,58.1,-25.5C65.8,-12.2,77.4,0.3,72,7.6C66.6,14.8,44.2,16.8,31.6,22.4C19,27.9,16.3,37.1,9.5,44.7C2.7,52.3,-8.1,58.4,-17,56.5C-25.9,54.6,-32.9,44.6,-39.6,35.2C-46.2,25.9,-52.5,17.2,-53.7,7.8C-54.9,-1.6,-51.1,-11.6,-48.4,-24.1C-45.7,-36.5,-44.2,-51.5,-36.3,-52.8C-28.5,-54.1,-14.2,-41.7,0.1,-41.8C14.4,-41.9,28.7,-54.5,37.7,-53.7Z" transform="translate(100 100)" />
</svg>
